<svg xmlns="http://www.w3.org/2000/svg" viewBox="0 0 960 540" width="960" height="540" role="img" aria-label="Fan chart of 2,000 simulated Monte Carlo paths">
<clipPath id="frame"><rect width="960" height="540"/></clipPath>
<rect width="960" height="540" fill="#f4ede1"/>
<g clip-path="url(#frame)">
<polygon points="24,271 39,82 55,74 70,84 86,74 101,69 117,80 132,76 148,82 163,71 179,80 194,81 209,78 225,67 240,75 256,70 271,75 287,67 302,80 318,81 333,74 349,80 364,78 380,58 395,78 410,66 426,77 441,78 457,79 472,81 488,75 503,77 519,77 534,68 550,78 565,80 580,85 596,75 611,66 627,75 642,75 658,75 673,78 689,79 704,83 720,71 735,82 751,79 766,70 781,69 797,76 812,63 828,78 843,71 859,64 874,77 890,75 905,78 921,73 936,79 936,474 921,463 905,470 890,467 874,464 859,465 843,471 828,463 812,472 797,463 781,470 766,458 751,461 735,463 720,449 704,469 689,468 673,467 658,469 642,461 627,478 611,466 596,463 580,473 565,470 550,468 534,461 519,471 503,464 488,466 472,470 457,469 441,477 426,470 410,471 395,471 380,459 364,464 349,463 333,471 318,471 302,467 287,470 271,464 256,463 240,476 225,468 209,481 194,474 179,466 163,473 148,467 132,471 117,482 101,472 86,479 70,470 55,471 39,461 24,271" fill="#2b5a63" fill-opacity="0.14"/>
<polygon points="24,271 39,193 55,194 70,195 86,192 101,195 117,197 132,193 148,189 163,190 179,192 194,190 209,188 225,189 240,189 256,191 271,188 287,193 302,189 318,183 333,188 349,190 364,183 380,182 395,191 410,192 426,194 441,194 457,190 472,194 488,197 503,188 519,190 534,188 550,194 565,200 580,199 596,197 611,187 627,192 642,191 658,186 673,195 689,196 704,193 720,193 735,189 751,189 766,189 781,194 797,193 812,192 828,187 843,187 859,189 874,185 890,192 905,188 921,193 936,195 936,359 921,350 905,352 890,353 874,350 859,346 843,352 828,347 812,357 797,354 781,351 766,349 751,354 735,351 720,349 704,354 689,354 673,350 658,354 642,351 627,349 611,353 596,353 580,356 565,356 550,349 534,347 519,353 503,353 488,355 472,353 457,355 441,349 426,353 410,355 395,350 380,350 364,349 349,352 333,350 318,350 302,348 287,355 271,346 256,350 240,353 225,350 209,351 194,353 179,353 163,355 148,355 132,354 117,360 101,352 86,358 70,358 55,351 39,347 24,271" fill="#2b5a63" fill-opacity="0.30000000000000004"/>
<polyline points="24,271 39,243 55,279 70,197 86,225 101,310 117,302 132,278 148,222 163,30 179,412 194,168 209,178 225,285 240,117 256,85 271,216 287,286 302,529 318,336 333,335 349,343 364,179 380,253 395,381 410,419 426,335 441,262 457,367 472,319 488,278 503,195 519,225 534,188 550,416 565,474 580,462 596,130 611,209 627,347 642,352 658,265 673,165 689,383 704,317 720,256 735,284 751,300 766,-14 781,200 797,387 812,192 828,155 843,215 859,381 874,250 890,226 905,397 921,510 936,234" fill="none" stroke="#241f1a" stroke-opacity="0.05" stroke-width="1"/>
<polyline points="24,271 39,45 55,225 70,186 86,376 101,524 117,375 132,354 148,196 163,239 179,443 194,391 209,187 225,239 240,245 256,143 271,168 287,185 302,284 318,148 333,226 349,275 364,244 380,116 395,263 410,160 426,238 441,271 457,340 472,399 488,455 503,282 519,253 534,369 550,398 565,408 580,140 596,337 611,258 627,206 642,264 658,83 673,415 689,151 704,242 720,240 735,168 751,285 766,59 781,129 797,137 812,137 828,314 843,241 859,214 874,414 890,311 905,235 921,349 936,396" fill="none" stroke="#241f1a" stroke-opacity="0.05" stroke-width="1"/>
<polyline points="24,271 39,253 55,260 70,387 86,382 101,201 117,213 132,255 148,361 163,269 179,332 194,301 209,322 225,466 240,256 256,310 271,100 287,306 302,145 318,350 333,203 349,209 364,130 380,289 395,222 410,341 426,307 441,440 457,302 472,368 488,288 503,231 519,358 534,329 550,213 565,185 580,397 596,391 611,201 627,475 642,385 658,361 673,394 689,383 704,325 720,340 735,126 751,140 766,78 781,310 797,294 812,597 828,404 843,432 859,235 874,194 890,188 905,315 921,373 936,227" fill="none" stroke="#241f1a" stroke-opacity="0.05" stroke-width="1"/>
<polyline points="24,271 39,262 55,516 70,284 86,235 101,135 117,143 132,79 148,323 163,79 179,125 194,330 209,94 225,169 240,280 256,219 271,162 287,95 302,157 318,104 333,340 349,594 364,301 380,301 395,351 410,216 426,455 441,290 457,332 472,294 488,264 503,327 519,123 534,217 550,294 565,180 580,360 596,154 611,145 627,89 642,355 658,391 673,292 689,417 704,399 720,312 735,168 751,210 766,137 781,65 797,184 812,348 828,316 843,178 859,286 874,348 890,373 905,421 921,387 936,326" fill="none" stroke="#241f1a" stroke-opacity="0.05" stroke-width="1"/>
<polyline points="24,271 39,365 55,175 70,148 86,143 101,76 117,193 132,335 148,446 163,293 179,267 194,397 209,217 225,225 240,183 256,255 271,299 287,200 302,302 318,149 333,286 349,288 364,382 380,428 395,316 410,265 426,382 441,304 457,360 472,311 488,383 503,235 519,154 534,189 550,234 565,226 580,395 596,189 611,261 627,442 642,299 658,189 673,364 689,355 704,398 720,248 735,218 751,222 766,589 781,396 797,457 812,258 828,187 843,363 859,246 874,315 890,433 905,393 921,199 936,112" fill="none" stroke="#241f1a" stroke-opacity="0.05" stroke-width="1"/>
<polyline points="24,271 39,272 55,243 70,292 86,317 101,316 117,281 132,383 148,461 163,302 179,310 194,127 209,201 225,427 240,429 256,261 271,463 287,254 302,168 318,325 333,255 349,206 364,432 380,477 395,330 410,167 426,263 441,243 457,279 472,274 488,212 503,94 519,257 534,220 550,232 565,413 580,226 596,420 611,213 627,208 642,259 658,373 673,241 689,337 704,260 720,181 735,90 751,284 766,182 781,133 797,257 812,248 828,213 843,-0 859,238 874,236 890,110 905,124 921,255 936,139" fill="none" stroke="#241f1a" stroke-opacity="0.05" stroke-width="1"/>
<polyline points="24,271 39,284 55,280 70,246 86,579 101,385 117,359 132,347 148,211 163,430 179,227 194,201 209,344 225,415 240,275 256,435 271,282 287,224 302,177 318,175 333,249 349,226 364,267 380,257 395,363 410,263 426,503 441,349 457,342 472,383 488,92 503,84 519,91 534,75 550,89 565,217 580,537 596,189 611,207 627,117 642,125 658,396 673,253 689,481 704,406 720,305 735,247 751,275 766,206 781,147 797,189 812,198 828,132 843,186 859,394 874,181 890,237 905,275 921,227 936,307" fill="none" stroke="#241f1a" stroke-opacity="0.05" stroke-width="1"/>
<polyline points="24,271 39,222 55,11 70,180 86,330 101,337 117,396 132,428 148,360 163,236 179,277 194,233 209,136 225,267 240,379 256,310 271,317 287,194 302,36 318,283 333,164 349,38 364,135 380,201 395,277 410,119 426,329 441,263 457,508 472,228 488,243 503,231 519,269 534,515 550,223 565,116 580,180 596,266 611,458 627,341 642,345 658,263 673,256 689,265 704,283 720,452 735,235 751,213 766,245 781,315 797,312 812,326 828,328 843,342 859,204 874,144 890,83 905,211 921,120 936,255" fill="none" stroke="#241f1a" stroke-opacity="0.05" stroke-width="1"/>
<polyline points="24,271 39,249 55,367 70,71 86,23 101,378 117,372 132,276 148,242 163,276 179,166 194,321 209,323 225,409 240,256 256,188 271,155 287,387 302,103 318,221 333,283 349,274 364,115 380,376 395,468 410,238 426,116 441,59 457,154 472,118 488,125 503,150 519,153 534,259 550,294 565,170 580,246 596,176 611,273 627,356 642,395 658,334 673,241 689,199 704,295 720,219 735,64 751,186 766,227 781,286 797,246 812,148 828,284 843,349 859,313 874,336 890,249 905,571 921,320 936,413" fill="none" stroke="#241f1a" stroke-opacity="0.05" stroke-width="1"/>
<polyline points="24,271 39,327 55,217 70,440 86,354 101,379 117,164 132,151 148,13 163,211 179,237 194,533 209,327 225,386 240,305 256,339 271,338 287,427 302,412 318,401 333,268 349,114 364,96 380,-42 395,-11 410,52 426,330 441,265 457,146 472,183 488,-7 503,102 519,238 534,80 550,266 565,183 580,288 596,147 611,82 627,244 642,147 658,147 673,238 689,89 704,324 720,338 735,357 751,154 766,196 781,147 797,73 812,390 828,358 843,322 859,221 874,160 890,395 905,247 921,277 936,186" fill="none" stroke="#241f1a" stroke-opacity="0.05" stroke-width="1"/>
<polyline points="24,271 39,312 55,310 70,246 86,243 101,160 117,274 132,287 148,270 163,212 179,495 194,455 209,419 225,322 240,165 256,138 271,85 287,189 302,167 318,237 333,473 349,366 364,378 380,299 395,213 410,413 426,332 441,221 457,203 472,391 488,339 503,162 519,252 534,65 550,123 565,376 580,197 596,355 611,320 627,549 642,404 658,584 673,487 689,98 704,177 720,275 735,327 751,212 766,215 781,222 797,412 812,205 828,296 843,471 859,326 874,343 890,454 905,545 921,371 936,256" fill="none" stroke="#241f1a" stroke-opacity="0.05" stroke-width="1"/>
<polyline points="24,271 39,289 55,36 70,149 86,197 101,348 117,357 132,37 148,128 163,390 179,151 194,145 209,137 225,151 240,420 256,222 271,343 287,277 302,276 318,304 333,287 349,363 364,368 380,531 395,257 410,302 426,445 441,252 457,354 472,367 488,333 503,388 519,340 534,124 550,-41 565,259 580,303 596,233 611,267 627,409 642,364 658,362 673,311 689,420 704,415 720,549 735,474 751,302 766,205 781,242 797,275 812,399 828,295 843,269 859,272 874,289 890,316 905,259 921,175 936,253" fill="none" stroke="#241f1a" stroke-opacity="0.05" stroke-width="1"/>
<polyline points="24,271 39,456 55,387 70,288 86,501 101,346 117,514 132,219 148,240 163,328 179,245 194,332 209,187 225,331 240,322 256,365 271,214 287,249 302,247 318,233 333,358 349,261 364,154 380,227 395,310 410,266 426,61 441,89 457,98 472,-2 488,115 503,259 519,222 534,360 550,245 565,357 580,264 596,270 611,238 627,323 642,191 658,266 673,199 689,463 704,83 720,406 735,373 751,369 766,276 781,263 797,367 812,435 828,369 843,446 859,330 874,287 890,193 905,236 921,321 936,222" fill="none" stroke="#241f1a" stroke-opacity="0.05" stroke-width="1"/>
<polyline points="24,271 39,106 55,323 70,313 86,287 101,180 117,330 132,423 148,242 163,412 179,418 194,332 209,227 225,269 240,432 256,366 271,263 287,365 302,140 318,114 333,251 349,316 364,223 380,329 395,278 410,240 426,92 441,216 457,191 472,429 488,265 503,369 519,399 534,126 550,101 565,55 580,276 596,338 611,285 627,253 642,383 658,165 673,210 689,301 704,12 720,113 735,287 751,177 766,349 781,354 797,222 812,415 828,279 843,337 859,207 874,114 890,159 905,400 921,425 936,127" fill="none" stroke="#241f1a" stroke-opacity="0.05" stroke-width="1"/>
<polyline points="24,271 39,292 55,236 70,353 86,211 101,317 117,353 132,185 148,406 163,426 179,260 194,106 209,20 225,171 240,390 256,89 271,279 287,361 302,344 318,409 333,234 349,349 364,501 380,299 395,253 410,92 426,46 441,296 457,123 472,173 488,177 503,159 519,212 534,244 550,187 565,56 580,237 596,182 611,252 627,287 642,314 658,202 673,180 689,248 704,191 720,83 735,138 751,380 766,301 781,272 797,237 812,192 828,150 843,277 859,276 874,400 890,240 905,367 921,471 936,277" fill="none" stroke="#241f1a" stroke-opacity="0.05" stroke-width="1"/>
<polyline points="24,271 39,168 55,204 70,325 86,410 101,263 117,403 132,387 148,453 163,363 179,346 194,297 209,375 225,405 240,282 256,241 271,196 287,317 302,378 318,379 333,486 349,433 364,300 380,129 395,275 410,215 426,316 441,240 457,365 472,85 488,206 503,272 519,394 534,216 550,331 565,242 580,222 596,223 611,289 627,311 642,242 658,135 673,300 689,118 704,255 720,295 735,133 751,355 766,427 781,533 797,270 812,337 828,209 843,366 859,225 874,189 890,164 905,219 921,348 936,384" fill="none" stroke="#241f1a" stroke-opacity="0.05" stroke-width="1"/>
<polyline points="24,271 39,154 55,294 70,352 86,253 101,210 117,95 132,74 148,355 163,329 179,162 194,113 209,218 225,203 240,329 256,301 271,334 287,549 302,385 318,157 333,256 349,268 364,260 380,66 395,57 410,222 426,175 441,256 457,309 472,456 488,416 503,278 519,285 534,321 550,394 565,213 580,227 596,243 611,184 627,189 642,236 658,319 673,366 689,327 704,397 720,127 735,229 751,356 766,282 781,231 797,192 812,6 828,206 843,332 859,222 874,440 890,296 905,347 921,524 936,326" fill="none" stroke="#241f1a" stroke-opacity="0.05" stroke-width="1"/>
<polyline points="24,271 39,172 55,201 70,345 86,332 101,538 117,410 132,221 148,197 163,179 179,102 194,234 209,259 225,183 240,320 256,364 271,612 287,284 302,213 318,406 333,326 349,236 364,430 380,459 395,123 410,186 426,51 441,86 457,226 472,199 488,138 503,370 519,309 534,309 550,363 565,161 580,287 596,209 611,235 627,323 642,273 658,113 673,565 689,220 704,127 720,222 735,324 751,333 766,310 781,253 797,301 812,348 828,154 843,375 859,331 874,245 890,237 905,159 921,76 936,155" fill="none" stroke="#241f1a" stroke-opacity="0.05" stroke-width="1"/>
<polyline points="24,271 39,208 55,-5 70,205 86,20 101,230 117,178 132,412 148,141 163,257 179,158 194,173 209,133 225,339 240,331 256,315 271,442 287,325 302,189 318,247 333,379 349,181 364,126 380,191 395,307 410,299 426,257 441,502 457,357 472,182 488,215 503,298 519,202 534,178 550,233 565,187 580,-22 596,433 611,321 627,300 642,307 658,271 673,240 689,298 704,120 720,301 735,150 751,403 766,444 781,469 797,468 812,341 828,388 843,369 859,294 874,345 890,336 905,189 921,204 936,199" fill="none" stroke="#241f1a" stroke-opacity="0.05" stroke-width="1"/>
<polyline points="24,271 39,317 55,361 70,157 86,76 101,97 117,51 132,-25 148,102 163,309 179,465 194,457 209,307 225,365 240,403 256,316 271,224 287,337 302,296 318,431 333,419 349,360 364,457 380,528 395,206 410,213 426,273 441,213 457,372 472,326 488,513 503,346 519,254 534,391 550,321 565,318 580,167 596,351 611,364 627,311 642,164 658,366 673,378 689,381 704,232 720,293 735,349 751,263 766,341 781,416 797,510 812,287 828,242 843,351 859,417 874,281 890,255 905,358 921,198 936,240" fill="none" stroke="#241f1a" stroke-opacity="0.05" stroke-width="1"/>
<polyline points="24,271 39,404 55,343 70,361 86,370 101,270 117,317 132,212 148,225 163,397 179,183 194,245 209,231 225,-24 240,209 256,200 271,208 287,286 302,299 318,284 333,255 349,199 364,75 380,336 395,295 410,167 426,323 441,277 457,440 472,197 488,101 503,358 519,381 534,523 550,286 565,218 580,241 596,135 611,62 627,258 642,389 658,180 673,258 689,411 704,447 720,182 735,186 751,251 766,499 781,339 797,207 812,253 828,404 843,34 859,315 874,382 890,475 905,410 921,439 936,534" fill="none" stroke="#241f1a" stroke-opacity="0.05" stroke-width="1"/>
<polyline points="24,271 39,389 55,91 70,201 86,222 101,179 117,62 132,222 148,229 163,513 179,290 194,306 209,240 225,413 240,347 256,365 271,148 287,295 302,244 318,420 333,405 349,178 364,130 380,-0 395,79 410,192 426,292 441,148 457,216 472,385 488,254 503,107 519,379 534,415 550,578 565,539 580,199 596,424 611,329 627,465 642,382 658,445 673,405 689,387 704,307 720,396 735,563 751,182 766,308 781,267 797,216 812,-53 828,258 843,337 859,276 874,242 890,304 905,230 921,235 936,166" fill="none" stroke="#241f1a" stroke-opacity="0.05" stroke-width="1"/>
<polyline points="24,271 39,86 55,341 70,152 86,224 101,347 117,382 132,274 148,322 163,249 179,277 194,131 209,132 225,210 240,239 256,244 271,306 287,459 302,658 318,511 333,28 349,218 364,268 380,297 395,200 410,285 426,182 441,58 457,205 472,408 488,351 503,280 519,297 534,255 550,265 565,167 580,197 596,461 611,235 627,264 642,346 658,634 673,234 689,335 704,147 720,163 735,260 751,338 766,413 781,368 797,264 812,555 828,98 843,180 859,230 874,278 890,131 905,510 921,172 936,254" fill="none" stroke="#241f1a" stroke-opacity="0.05" stroke-width="1"/>
<polyline points="24,271 39,348 55,445 70,270 86,60 101,113 117,205 132,295 148,340 163,402 179,343 194,298 209,429 225,395 240,21 256,357 271,439 287,309 302,21 318,319 333,495 349,491 364,417 380,129 395,244 410,250 426,124 441,324 457,138 472,111 488,93 503,395 519,354 534,389 550,387 565,240 580,186 596,245 611,360 627,276 642,59 658,330 673,291 689,304 704,236 720,268 735,385 751,416 766,597 781,215 797,174 812,207 828,516 843,245 859,406 874,347 890,405 905,335 921,210 936,126" fill="none" stroke="#241f1a" stroke-opacity="0.05" stroke-width="1"/>
<polyline points="24,271 39,269 55,304 70,196 86,381 101,200 117,295 132,133 148,189 163,152 179,410 194,364 209,411 225,245 240,-7 256,216 271,253 287,398 302,454 318,257 333,467 349,243 364,76 380,237 395,457 410,524 426,430 441,438 457,384 472,291 488,150 503,130 519,172 534,232 550,290 565,184 580,231 596,186 611,192 627,271 642,341 658,268 673,144 689,283 704,176 720,312 735,295 751,286 766,229 781,246 797,330 812,196 828,176 843,247 859,260 874,272 890,330 905,333 921,311 936,240" fill="none" stroke="#241f1a" stroke-opacity="0.05" stroke-width="1"/>
<polyline points="24,271 39,448 55,287 70,402 86,355 101,388 117,222 132,145 148,245 163,297 179,99 194,362 209,247 225,445 240,251 256,367 271,401 287,241 302,259 318,212 333,273 349,365 364,521 380,327 395,311 410,144 426,301 441,325 457,279 472,408 488,187 503,267 519,175 534,72 550,283 565,120 580,185 596,275 611,393 627,305 642,124 658,498 673,217 689,263 704,449 720,354 735,260 751,307 766,373 781,332 797,359 812,396 828,260 843,266 859,433 874,286 890,422 905,495 921,403 936,438" fill="none" stroke="#241f1a" stroke-opacity="0.05" stroke-width="1"/>
<polyline points="24,271 39,367 55,279 70,195 86,329 101,364 117,407 132,360 148,408 163,453 179,367 194,340 209,555 225,684 240,477 256,486 271,279 287,75 302,148 318,42 333,178 349,445 364,506 380,336 395,229 410,175 426,165 441,81 457,156 472,190 488,113 503,234 519,383 534,170 550,-50 565,168 580,235 596,268 611,398 627,323 642,387 658,367 673,480 689,444 704,386 720,417 735,336 751,430 766,348 781,203 797,284 812,545 828,468 843,311 859,403 874,120 890,320 905,341 921,199 936,254" fill="none" stroke="#241f1a" stroke-opacity="0.05" stroke-width="1"/>
<polyline points="24,271 39,218 55,271 70,435 86,105 101,315 117,280 132,255 148,246 163,176 179,197 194,83 209,22 225,191 240,375 256,370 271,398 287,378 302,195 318,352 333,273 349,241 364,210 380,229 395,257 410,299 426,230 441,248 457,457 472,328 488,295 503,191 519,255 534,224 550,199 565,-30 580,162 596,224 611,284 627,379 642,132 658,-36 673,191 689,288 704,203 720,438 735,365 751,155 766,153 781,297 797,199 812,279 828,242 843,212 859,215 874,79 890,139 905,211 921,251 936,238" fill="none" stroke="#241f1a" stroke-opacity="0.05" stroke-width="1"/>
<polyline points="24,271 39,243 55,418 70,399 86,304 101,267 117,114 132,238 148,306 163,186 179,196 194,306 209,175 225,184 240,220 256,145 271,278 287,72 302,12 318,174 333,123 349,250 364,440 380,175 395,241 410,480 426,173 441,149 457,239 472,318 488,214 503,432 519,273 534,308 550,222 565,279 580,222 596,325 611,425 627,211 642,234 658,496 673,338 689,349 704,361 720,205 735,202 751,209 766,270 781,138 797,0 812,101 828,181 843,173 859,341 874,284 890,265 905,290 921,293 936,202" fill="none" stroke="#241f1a" stroke-opacity="0.05" stroke-width="1"/>
<polyline points="24,271 39,118 55,315 70,266 86,153 101,181 117,312 132,319 148,328 163,282 179,127 194,273 209,529 225,549 240,514 256,611 271,398 287,150 302,144 318,183 333,392 349,195 364,303 380,239 395,225 410,192 426,224 441,344 457,333 472,315 488,286 503,228 519,319 534,342 550,213 565,232 580,149 596,275 611,223 627,227 642,128 658,356 673,172 689,332 704,167 720,300 735,356 751,169 766,436 781,36 797,392 812,132 828,240 843,221 859,-29 874,238 890,252 905,308 921,268 936,299" fill="none" stroke="#241f1a" stroke-opacity="0.05" stroke-width="1"/>
<polyline points="24,271 39,267 55,258 70,216 86,329 101,206 117,399 132,260 148,159 163,278 179,302 194,241 209,134 225,373 240,220 256,340 271,221 287,217 302,335 318,287 333,252 349,308 364,408 380,401 395,468 410,426 426,378 441,372 457,176 472,84 488,303 503,436 519,377 534,306 550,283 565,84 580,265 596,224 611,184 627,478 642,211 658,350 673,211 689,256 704,92 720,309 735,214 751,184 766,174 781,100 797,189 812,152 828,542 843,281 859,306 874,338 890,333 905,240 921,171 936,364" fill="none" stroke="#241f1a" stroke-opacity="0.05" stroke-width="1"/>
<polyline points="24,271 39,196 55,321 70,268 86,391 101,287 117,308 132,384 148,408 163,229 179,64 194,306 209,285 225,281 240,286 256,93 271,176 287,235 302,185 318,255 333,473 349,300 364,255 380,253 395,136 410,245 426,167 441,-57 457,93 472,137 488,219 503,191 519,413 534,493 550,407 565,286 580,388 596,88 611,236 627,41 642,418 658,291 673,403 689,521 704,339 720,109 735,147 751,403 766,360 781,456 797,275 812,274 828,182 843,195 859,367 874,160 890,165 905,416 921,333 936,227" fill="none" stroke="#241f1a" stroke-opacity="0.05" stroke-width="1"/>
<polyline points="24,271 39,299 55,266 70,439 86,383 101,518 117,552 132,485 148,330 163,385 179,147 194,190 209,135 225,257 240,341 256,390 271,199 287,369 302,382 318,246 333,85 349,191 364,281 380,73 395,85 410,284 426,245 441,476 457,184 472,396 488,271 503,400 519,492 534,344 550,323 565,209 580,273 596,213 611,331 627,361 642,269 658,345 673,247 689,266 704,354 720,235 735,402 751,268 766,286 781,350 797,179 812,166 828,371 843,225 859,324 874,554 890,417 905,228 921,431 936,117" fill="none" stroke="#241f1a" stroke-opacity="0.05" stroke-width="1"/>
<polyline points="24,271 39,191 55,337 70,406 86,553 101,419 117,303 132,289 148,285 163,213 179,400 194,389 209,306 225,293 240,336 256,251 271,436 287,350 302,303 318,24 333,305 349,518 364,515 380,196 395,216 410,124 426,112 441,36 457,225 472,169 488,208 503,106 519,126 534,308 550,218 565,23 580,217 596,264 611,301 627,328 642,389 658,192 673,244 689,219 704,169 720,517 735,432 751,268 766,153 781,256 797,362 812,244 828,229 843,297 859,119 874,325 890,351 905,170 921,240 936,363" fill="none" stroke="#241f1a" stroke-opacity="0.05" stroke-width="1"/>
<polyline points="24,271 39,336 55,335 70,326 86,403 101,241 117,231 132,208 148,303 163,473 179,321 194,279 209,211 225,192 240,223 256,-10 271,173 287,160 302,377 318,322 333,293 349,356 364,86 380,72 395,323 410,376 426,271 441,295 457,359 472,204 488,283 503,279 519,332 534,262 550,309 565,269 580,419 596,392 611,235 627,19 642,165 658,271 673,271 689,198 704,99 720,280 735,150 751,411 766,308 781,142 797,191 812,188 828,397 843,366 859,242 874,475 890,557 905,360 921,374 936,228" fill="none" stroke="#241f1a" stroke-opacity="0.05" stroke-width="1"/>
<polyline points="24,271 39,338 55,336 70,466 86,461 101,494 117,282 132,434 148,252 163,182 179,183 194,299 209,195 225,232 240,360 256,408 271,502 287,399 302,513 318,298 333,272 349,164 364,249 380,191 395,351 410,203 426,94 441,336 457,396 472,535 488,639 503,405 519,373 534,343 550,298 565,278 580,201 596,274 611,312 627,126 642,148 658,103 673,288 689,467 704,325 720,94 735,206 751,225 766,300 781,362 797,436 812,282 828,303 843,356 859,284 874,325 890,86 905,200 921,329 936,508" fill="none" stroke="#241f1a" stroke-opacity="0.05" stroke-width="1"/>
<polyline points="24,271 39,257 55,235 70,218 86,381 101,491 117,329 132,178 148,218 163,348 179,152 194,381 209,150 225,283 240,339 256,294 271,423 287,167 302,445 318,156 333,170 349,74 364,155 380,194 395,99 410,283 426,268 441,303 457,284 472,260 488,345 503,261 519,270 534,97 550,133 565,512 580,370 596,285 611,222 627,184 642,242 658,326 673,211 689,319 704,303 720,334 735,334 751,290 766,49 781,220 797,202 812,45 828,297 843,466 859,331 874,298 890,150 905,312 921,354 936,429" fill="none" stroke="#241f1a" stroke-opacity="0.05" stroke-width="1"/>
<polyline points="24,271 39,336 55,335 70,337 86,522 101,425 117,244 132,264 148,318 163,402 179,541 194,234 209,211 225,120 240,115 256,140 271,113 287,236 302,300 318,403 333,304 349,209 364,189 380,203 395,54 410,219 426,236 441,307 457,406 472,443 488,506 503,333 519,341 534,256 550,139 565,76 580,153 596,358 611,461 627,302 642,278 658,170 673,294 689,310 704,413 720,87 735,435 751,333 766,280 781,320 797,240 812,513 828,548 843,469 859,217 874,270 890,197 905,352 921,290 936,479" fill="none" stroke="#241f1a" stroke-opacity="0.05" stroke-width="1"/>
<polyline points="24,271 39,168 55,378 70,421 86,165 101,441 117,323 132,359 148,113 163,251 179,335 194,455 209,513 225,311 240,247 256,200 271,321 287,381 302,222 318,454 333,341 349,261 364,261 380,460 395,415 410,279 426,215 441,429 457,366 472,199 488,221 503,142 519,36 534,204 550,131 565,130 580,257 596,201 611,64 627,175 642,362 658,330 673,517 689,162 704,303 720,371 735,439 751,379 766,219 781,190 797,391 812,448 828,361 843,490 859,274 874,346 890,444 905,263 921,342 936,300" fill="none" stroke="#241f1a" stroke-opacity="0.05" stroke-width="1"/>
<polyline points="24,271 39,371 55,514 70,446 86,254 101,294 117,231 132,345 148,325 163,477 179,223 194,302 209,346 225,157 240,260 256,383 271,437 287,137 302,149 318,327 333,255 349,70 364,154 380,136 395,78 410,93 426,7 441,71 457,-5 472,68 488,162 503,212 519,92 534,304 550,472 565,401 580,285 596,213 611,378 627,316 642,227 658,308 673,273 689,239 704,8 720,280 735,297 751,400 766,292 781,166 797,181 812,185 828,201 843,148 859,269 874,306 890,237 905,372 921,169 936,-91" fill="none" stroke="#241f1a" stroke-opacity="0.05" stroke-width="1"/>
<polyline points="24,271 39,375 55,385 70,393 86,402 101,369 117,336 132,431 148,379 163,291 179,345 194,236 209,319 225,284 240,211 256,263 271,346 287,78 302,353 318,189 333,417 349,121 364,140 380,98 395,161 410,204 426,207 441,225 457,443 472,250 488,336 503,563 519,365 534,313 550,426 565,310 580,99 596,141 611,396 627,298 642,506 658,300 673,380 689,379 704,160 720,280 735,432 751,343 766,229 781,343 797,201 812,-22 828,147 843,221 859,243 874,57 890,140 905,346 921,276 936,426" fill="none" stroke="#241f1a" stroke-opacity="0.05" stroke-width="1"/>
<polyline points="24,271 39,258 55,542 70,434 86,170 101,231 117,313 132,565 148,270 163,355 179,362 194,180 209,376 225,562 240,486 256,165 271,383 287,296 302,312 318,369 333,427 349,395 364,236 380,266 395,192 410,298 426,167 441,302 457,243 472,318 488,414 503,85 519,284 534,325 550,188 565,317 580,527 596,279 611,230 627,237 642,269 658,331 673,168 689,216 704,337 720,417 735,291 751,42 766,159 781,234 797,230 812,163 828,279 843,327 859,198 874,77 890,85 905,246 921,420 936,191" fill="none" stroke="#241f1a" stroke-opacity="0.05" stroke-width="1"/>
<polyline points="24,271 39,443 55,368 70,334 86,194 101,178 117,361 132,314 148,378 163,194 179,314 194,238 209,81 225,170 240,294 256,347 271,243 287,246 302,486 318,473 333,204 349,244 364,270 380,316 395,306 410,524 426,537 441,195 457,328 472,347 488,93 503,352 519,350 534,511 550,206 565,371 580,312 596,391 611,291 627,235 642,505 658,472 673,663 689,145 704,235 720,137 735,174 751,153 766,320 781,218 797,452 812,218 828,257 843,478 859,437 874,262 890,167 905,319 921,191 936,310" fill="none" stroke="#241f1a" stroke-opacity="0.05" stroke-width="1"/>
<polyline points="24,271 39,243 55,243 70,308 86,267 101,274 117,298 132,235 148,273 163,448 179,498 194,186 209,345 225,497 240,254 256,237 271,196 287,303 302,197 318,308 333,268 349,258 364,364 380,236 395,370 410,339 426,319 441,326 457,233 472,180 488,416 503,203 519,422 534,223 550,283 565,254 580,285 596,196 611,300 627,78 642,276 658,188 673,432 689,303 704,404 720,298 735,390 751,287 766,213 781,249 797,307 812,181 828,144 843,210 859,255 874,463 890,569 905,453 921,232 936,334" fill="none" stroke="#241f1a" stroke-opacity="0.05" stroke-width="1"/>
<polyline points="24,271 39,333 55,140 70,28 86,197 101,308 117,201 132,247 148,197 163,255 179,153 194,334 209,342 225,358 240,454 256,352 271,482 287,320 302,309 318,135 333,246 349,213 364,57 380,267 395,256 410,370 426,379 441,228 457,266 472,209 488,340 503,133 519,255 534,331 550,462 565,313 580,179 596,205 611,212 627,169 642,336 658,402 673,122 689,142 704,347 720,109 735,294 751,350 766,186 781,380 797,506 812,382 828,339 843,262 859,304 874,479 890,302 905,374 921,260 936,194" fill="none" stroke="#241f1a" stroke-opacity="0.05" stroke-width="1"/>
<polyline points="24,271 39,232 55,338 70,232 86,35 101,-20 117,60 132,66 148,183 163,270 179,164 194,413 209,318 225,241 240,262 256,362 271,402 287,348 302,391 318,519 333,404 349,217 364,262 380,323 395,154 410,192 426,349 441,240 457,264 472,88 488,107 503,318 519,493 534,369 550,244 565,322 580,148 596,79 611,399 627,331 642,286 658,364 673,164 689,152 704,337 720,261 735,338 751,237 766,160 781,213 797,167 812,135 828,285 843,300 859,424 874,352 890,253 905,139 921,171 936,351" fill="none" stroke="#241f1a" stroke-opacity="0.05" stroke-width="1"/>
<polyline points="24,271 39,315 55,217 70,461 86,134 101,198 117,206 132,102 148,2 163,129 179,35 194,236 209,153 225,336 240,359 256,318 271,443 287,246 302,219 318,398 333,452 349,442 364,312 380,608 395,220 410,128 426,371 441,219 457,217 472,78 488,504 503,332 519,184 534,193 550,437 565,297 580,253 596,226 611,261 627,117 642,132 658,173 673,255 689,96 704,135 720,79 735,130 751,199 766,273 781,171 797,231 812,460 828,445 843,126 859,122 874,263 890,319 905,148 921,464 936,427" fill="none" stroke="#241f1a" stroke-opacity="0.05" stroke-width="1"/>
<polyline points="24,271 39,156 55,108 70,168 86,236 101,147 117,160 132,420 148,262 163,490 179,308 194,214 209,328 225,177 240,211 256,392 271,151 287,489 302,490 318,283 333,141 349,284 364,381 380,430 395,579 410,473 426,269 441,370 457,412 472,325 488,233 503,278 519,457 534,371 550,90 565,103 580,356 596,195 611,172 627,335 642,277 658,312 673,210 689,133 704,104 720,197 735,333 751,296 766,140 781,183 797,324 812,380 828,393 843,521 859,321 874,188 890,321 905,326 921,313 936,439" fill="none" stroke="#241f1a" stroke-opacity="0.05" stroke-width="1"/>
<polyline points="24,271 39,253 55,455 70,231 86,363 101,398 117,403 132,210 148,196 163,354 179,389 194,505 209,286 225,398 240,288 256,421 271,286 287,224 302,301 318,397 333,251 349,647 364,393 380,190 395,103 410,190 426,241 441,158 457,66 472,322 488,21 503,143 519,350 534,118 550,393 565,230 580,248 596,380 611,338 627,206 642,356 658,361 673,214 689,259 704,218 720,373 735,448 751,433 766,373 781,482 797,399 812,455 828,350 843,263 859,77 874,305 890,222 905,101 921,342 936,344" fill="none" stroke="#241f1a" stroke-opacity="0.05" stroke-width="1"/>
<polyline points="24,271 39,404 55,459 70,332 86,348 101,475 117,518 132,215 148,264 163,334 179,428 194,272 209,360 225,305 240,479 256,426 271,262 287,231 302,273 318,276 333,255 349,273 364,336 380,277 395,536 410,316 426,330 441,485 457,411 472,271 488,233 503,138 519,220 534,300 550,272 565,243 580,264 596,319 611,372 627,244 642,277 658,180 673,178 689,396 704,360 720,87 735,47 751,298 766,363 781,176 797,179 812,97 828,210 843,338 859,199 874,67 890,316 905,276 921,358 936,374" fill="none" stroke="#241f1a" stroke-opacity="0.05" stroke-width="1"/>
<polyline points="24,271 39,236 55,232 70,48 86,245 101,100 117,288 132,360 148,432 163,315 179,434 194,177 209,129 225,330 240,323 256,379 271,247 287,444 302,268 318,356 333,509 349,322 364,354 380,324 395,231 410,333 426,336 441,201 457,288 472,200 488,315 503,137 519,284 534,246 550,349 565,368 580,247 596,407 611,336 627,454 642,545 658,245 673,270 689,244 704,498 720,251 735,291 751,311 766,359 781,334 797,417 812,423 828,288 843,274 859,108 874,252 890,373 905,372 921,350 936,76" fill="none" stroke="#241f1a" stroke-opacity="0.05" stroke-width="1"/>
<polyline points="24,271 39,405 55,274 70,436 86,324 101,316 117,424 132,303 148,205 163,183 179,297 194,238 209,68 225,214 240,152 256,148 271,224 287,245 302,274 318,122 333,26 349,184 364,68 380,68 395,6 410,344 426,495 441,120 457,27 472,-24 488,238 503,344 519,291 534,473 550,387 565,220 580,252 596,238 611,201 627,312 642,232 658,119 673,308 689,233 704,316 720,388 735,554 751,461 766,284 781,413 797,156 812,395 828,544 843,226 859,320 874,268 890,216 905,129 921,265 936,266" fill="none" stroke="#241f1a" stroke-opacity="0.05" stroke-width="1"/>
<polyline points="24,271 39,268 55,56 70,264 86,82 101,275 117,383 132,194 148,372 163,271 179,508 194,439 209,324 225,329 240,271 256,447 271,367 287,269 302,270 318,372 333,472 349,94 364,115 380,177 395,38 410,221 426,231 441,234 457,244 472,308 488,248 503,320 519,206 534,225 550,211 565,346 580,501 596,309 611,437 627,306 642,316 658,276 673,179 689,289 704,277 720,360 735,307 751,41 766,299 781,264 797,168 812,272 828,336 843,488 859,266 874,94 890,114 905,213 921,159 936,68" fill="none" stroke="#241f1a" stroke-opacity="0.05" stroke-width="1"/>
<polyline points="24,271 39,357 55,289 70,235 86,71 101,124 117,330 132,262 148,329 163,435 179,187 194,284 209,295 225,201 240,321 256,403 271,339 287,342 302,92 318,72 333,408 349,320 364,284 380,171 395,168 410,221 426,432 441,532 457,437 472,494 488,533 503,272 519,394 534,389 550,352 565,272 580,206 596,358 611,482 627,216 642,273 658,121 673,295 689,252 704,313 720,228 735,248 751,114 766,218 781,330 797,363 812,221 828,446 843,161 859,371 874,104 890,234 905,469 921,494 936,383" fill="none" stroke="#241f1a" stroke-opacity="0.05" stroke-width="1"/>
<polyline points="24,271 39,331 55,317 70,289 86,175 101,126 117,238 132,257 148,97 163,159 179,110 194,195 209,227 225,289 240,174 256,385 271,165 287,272 302,28 318,306 333,556 349,455 364,236 380,241 395,79 410,517 426,534 441,305 457,195 472,241 488,73 503,405 519,322 534,376 550,503 565,275 580,402 596,367 611,470 627,335 642,211 658,148 673,229 689,277 704,262 720,198 735,149 751,350 766,123 781,268 797,61 812,105 828,288 843,352 859,159 874,98 890,140 905,216 921,98 936,179" fill="none" stroke="#241f1a" stroke-opacity="0.05" stroke-width="1"/>
<polyline points="24,271 39,302 55,292 70,479 86,237 101,313 117,193 132,479 148,372 163,434 179,566 194,396 209,509 225,197 240,119 256,346 271,269 287,203 302,338 318,420 333,254 349,362 364,473 380,617 395,383 410,355 426,306 441,356 457,209 472,357 488,421 503,129 519,45 534,130 550,263 565,232 580,231 596,353 611,295 627,243 642,330 658,556 673,353 689,230 704,170 720,374 735,92 751,379 766,374 781,217 797,127 812,242 828,211 843,295 859,258 874,151 890,287 905,250 921,270 936,107" fill="none" stroke="#241f1a" stroke-opacity="0.05" stroke-width="1"/>
<polyline points="24,271 39,75 55,287 70,433 86,-47 101,109 117,209 132,176 148,194 163,99 179,338 194,204 209,153 225,298 240,400 256,255 271,208 287,317 302,328 318,336 333,284 349,144 364,271 380,367 395,308 410,300 426,348 441,189 457,376 472,108 488,75 503,-72 519,93 534,129 550,250 565,313 580,291 596,47 611,423 627,461 642,344 658,228 673,282 689,393 704,560 720,382 735,432 751,265 766,228 781,288 797,290 812,306 828,151 843,164 859,360 874,456 890,395 905,518 921,472 936,394" fill="none" stroke="#241f1a" stroke-opacity="0.05" stroke-width="1"/>
<polyline points="24,271 39,433 55,246 70,191 86,433 101,414 117,223 132,471 148,279 163,249 179,268 194,303 209,527 225,274 240,421 256,237 271,154 287,199 302,188 318,271 333,80 349,185 364,343 380,156 395,326 410,266 426,257 441,124 457,377 472,326 488,174 503,116 519,212 534,342 550,12 565,215 580,314 596,262 611,450 627,277 642,276 658,23 673,322 689,261 704,331 720,426 735,277 751,339 766,190 781,405 797,335 812,357 828,67 843,154 859,201 874,31 890,45 905,-80 921,153 936,224" fill="none" stroke="#241f1a" stroke-opacity="0.05" stroke-width="1"/>
<polyline points="24,271 39,336 55,307 70,189 86,326 101,391 117,517 132,495 148,530 163,493 179,293 194,205 209,141 225,198 240,268 256,379 271,279 287,360 302,247 318,226 333,95 349,224 364,379 380,259 395,122 410,293 426,536 441,479 457,339 472,123 488,331 503,358 519,539 534,236 550,10 565,136 580,14 596,372 611,561 627,259 642,176 658,256 673,455 689,410 704,278 720,205 735,269 751,48 766,219 781,351 797,291 812,223 828,246 843,377 859,204 874,317 890,350 905,461 921,401 936,350" fill="none" stroke="#241f1a" stroke-opacity="0.05" stroke-width="1"/>
<polyline points="24,271 39,21 55,251 70,308 86,432 101,367 117,259 132,135 148,18 163,245 179,481 194,302 209,289 225,384 240,247 256,197 271,378 287,284 302,137 318,113 333,133 349,137 364,331 380,333 395,341 410,368 426,401 441,275 457,269 472,264 488,293 503,467 519,332 534,344 550,85 565,307 580,310 596,420 611,315 627,296 642,267 658,334 673,300 689,113 704,334 720,409 735,338 751,328 766,203 781,161 797,125 812,551 828,240 843,344 859,219 874,245 890,97 905,126 921,66 936,213" fill="none" stroke="#241f1a" stroke-opacity="0.05" stroke-width="1"/>
<polyline points="24,271 39,402 55,421 70,241 86,470 101,242 117,306 132,394 148,416 163,546 179,371 194,155 209,145 225,146 240,262 256,226 271,458 287,342 302,363 318,300 333,523 349,293 364,229 380,281 395,377 410,394 426,350 441,268 457,412 472,325 488,296 503,188 519,167 534,57 550,239 565,285 580,279 596,-29 611,115 627,107 642,165 658,397 673,479 689,514 704,282 720,418 735,492 751,503 766,263 781,258 797,315 812,141 828,116 843,272 859,344 874,217 890,331 905,397 921,-52 936,172" fill="none" stroke="#241f1a" stroke-opacity="0.05" stroke-width="1"/>
<polyline points="24,271 39,393 55,488 70,429 86,222 101,323 117,434 132,469 148,203 163,186 179,168 194,291 209,-20 225,144 240,315 256,55 271,148 287,220 302,285 318,435 333,420 349,668 364,568 380,254 395,143 410,257 426,302 441,398 457,288 472,426 488,230 503,188 519,478 534,369 550,410 565,230 580,150 596,-21 611,48 627,55 642,72 658,316 673,91 689,285 704,268 720,282 735,234 751,142 766,257 781,295 797,335 812,438 828,264 843,292 859,579 874,194 890,116 905,237 921,274 936,250" fill="none" stroke="#241f1a" stroke-opacity="0.05" stroke-width="1"/>
<polyline points="24,271 39,62 55,91 70,264 86,224 101,259 117,306 132,44 148,153 163,286 179,373 194,440 209,284 225,156 240,191 256,268 271,299 287,19 302,14 318,167 333,131 349,16 364,-27 380,233 395,261 410,124 426,205 441,214 457,242 472,498 488,214 503,393 519,299 534,433 550,216 565,210 580,309 596,283 611,171 627,167 642,195 658,318 673,107 689,250 704,196 720,366 735,426 751,326 766,174 781,88 797,145 812,336 828,356 843,340 859,-6 874,434 890,273 905,130 921,17 936,146" fill="none" stroke="#241f1a" stroke-opacity="0.05" stroke-width="1"/>
<polyline points="24,271 39,246 55,248 70,124 86,82 101,101 117,333 132,336 148,291 163,157 179,348 194,287 209,280 225,150 240,213 256,365 271,489 287,381 302,356 318,348 333,230 349,125 364,288 380,281 395,393 410,269 426,295 441,242 457,232 472,454 488,268 503,371 519,148 534,302 550,348 565,383 580,453 596,434 611,288 627,248 642,90 658,275 673,162 689,291 704,148 720,31 735,125 751,82 766,141 781,221 797,82 812,299 828,278 843,574 859,480 874,377 890,399 905,360 921,298 936,240" fill="none" stroke="#241f1a" stroke-opacity="0.05" stroke-width="1"/>
<polyline points="24,271 39,61 55,190 70,281 86,289 101,229 117,244 132,227 148,210 163,377 179,229 194,207 209,189 225,302 240,148 256,-2 271,232 287,525 302,352 318,213 333,99 349,141 364,52 380,296 395,288 410,285 426,294 441,490 457,275 472,119 488,30 503,204 519,91 534,132 550,280 565,445 580,409 596,432 611,145 627,294 642,201 658,213 673,252 689,245 704,96 720,300 735,329 751,355 766,307 781,433 797,358 812,416 828,445 843,305 859,304 874,499 890,418 905,417 921,297 936,311" fill="none" stroke="#241f1a" stroke-opacity="0.05" stroke-width="1"/>
<polyline points="24,271 39,151 55,234 70,437 86,383 101,269 117,277 132,291 148,365 163,90 179,208 194,552 209,101 225,328 240,229 256,159 271,120 287,351 302,136 318,-10 333,127 349,360 364,358 380,508 395,235 410,357 426,249 441,114 457,389 472,388 488,311 503,379 519,292 534,318 550,338 565,265 580,201 596,280 611,295 627,433 642,123 658,200 673,219 689,284 704,365 720,221 735,267 751,471 766,244 781,206 797,370 812,288 828,95 843,259 859,337 874,150 890,263 905,305 921,463 936,347" fill="none" stroke="#241f1a" stroke-opacity="0.05" stroke-width="1"/>
<polyline points="24,271 39,257 55,443 70,134 86,108 101,126 117,163 132,390 148,325 163,48 179,155 194,288 209,422 225,468 240,278 256,313 271,197 287,247 302,357 318,375 333,260 349,247 364,323 380,439 395,62 410,367 426,234 441,269 457,93 472,117 488,-49 503,153 519,142 534,180 550,215 565,71 580,98 596,123 611,36 627,182 642,177 658,346 673,421 689,440 704,222 720,173 735,527 751,374 766,278 781,360 797,193 812,199 828,267 843,410 859,449 874,408 890,551 905,433 921,281 936,333" fill="none" stroke="#241f1a" stroke-opacity="0.05" stroke-width="1"/>
<polyline points="24,271 39,251 55,121 70,259 86,240 101,479 117,190 132,329 148,173 163,468 179,358 194,430 209,253 225,337 240,96 256,421 271,156 287,314 302,160 318,230 333,273 349,237 364,213 380,120 395,286 410,193 426,181 441,190 457,209 472,111 488,354 503,442 519,183 534,250 550,263 565,206 580,242 596,329 611,264 627,128 642,327 658,153 673,325 689,301 704,154 720,199 735,97 751,185 766,218 781,272 797,175 812,83 828,48 843,66 859,261 874,390 890,271 905,345 921,143 936,231" fill="none" stroke="#241f1a" stroke-opacity="0.05" stroke-width="1"/>
<polyline points="24,271 39,437 55,265 70,235 86,285 101,286 117,278 132,265 148,132 163,169 179,-3 194,-132 209,-112 225,265 240,117 256,156 271,194 287,230 302,271 318,163 333,393 349,308 364,139 380,297 395,335 410,445 426,340 441,130 457,355 472,98 488,211 503,371 519,233 534,352 550,78 565,170 580,223 596,122 611,98 627,349 642,372 658,288 673,-74 689,148 704,91 720,124 735,252 751,305 766,235 781,261 797,184 812,291 828,78 843,245 859,128 874,161 890,128 905,297 921,459 936,445" fill="none" stroke="#241f1a" stroke-opacity="0.05" stroke-width="1"/>
<polyline points="24,271 39,530 55,332 70,521 86,493 101,378 117,244 132,110 148,79 163,203 179,374 194,235 209,256 225,254 240,286 256,417 271,253 287,268 302,449 318,362 333,481 349,450 364,387 380,307 395,310 410,158 426,220 441,119 457,351 472,329 488,252 503,179 519,409 534,288 550,297 565,230 580,454 596,262 611,259 627,83 642,77 658,154 673,287 689,132 704,208 720,361 735,188 751,340 766,608 781,537 797,385 812,291 828,255 843,213 859,322 874,331 890,190 905,448 921,400 936,341" fill="none" stroke="#241f1a" stroke-opacity="0.05" stroke-width="1"/>
<polyline points="24,271 39,159 55,95 70,190 86,345 101,434 117,257 132,320 148,399 163,509 179,293 194,194 209,140 225,130 240,247 256,84 271,123 287,205 302,279 318,246 333,273 349,374 364,162 380,245 395,163 410,73 426,242 441,147 457,78 472,170 488,163 503,131 519,110 534,355 550,233 565,247 580,148 596,339 611,291 627,363 642,330 658,253 673,132 689,296 704,273 720,186 735,94 751,283 766,274 781,319 797,270 812,326 828,352 843,342 859,161 874,256 890,335 905,376 921,218 936,414" fill="none" stroke="#241f1a" stroke-opacity="0.05" stroke-width="1"/>
<polyline points="24,271 39,260 55,36 70,35 86,355 101,329 117,203 132,61 148,146 163,138 179,118 194,217 209,306 225,222 240,202 256,302 271,245 287,384 302,259 318,247 333,445 349,328 364,149 380,-17 395,247 410,206 426,274 441,144 457,242 472,281 488,182 503,274 519,124 534,329 550,414 565,270 580,306 596,254 611,308 627,386 642,312 658,531 673,240 689,215 704,165 720,178 735,76 751,88 766,246 781,332 797,107 812,-18 828,184 843,508 859,199 874,231 890,245 905,159 921,296 936,116" fill="none" stroke="#241f1a" stroke-opacity="0.05" stroke-width="1"/>
<polyline points="24,271 39,377 55,254 70,217 86,314 101,208 117,425 132,517 148,455 163,494 179,440 194,173 209,141 225,105 240,386 256,431 271,404 287,278 302,114 318,146 333,355 349,176 364,367 380,277 395,446 410,397 426,245 441,150 457,197 472,143 488,418 503,492 519,475 534,286 550,324 565,180 580,313 596,162 611,228 627,224 642,424 658,320 673,352 689,237 704,276 720,448 735,415 751,234 766,291 781,405 797,155 812,317 828,323 843,280 859,310 874,85 890,115 905,180 921,344 936,461" fill="none" stroke="#241f1a" stroke-opacity="0.05" stroke-width="1"/>
<polyline points="24,271 39,-37 55,-26 70,211 86,163 101,247 117,108 132,120 148,263 163,253 179,297 194,160 209,209 225,507 240,313 256,213 271,365 287,166 302,172 318,340 333,465 349,299 364,225 380,143 395,374 410,439 426,406 441,236 457,217 472,246 488,101 503,53 519,303 534,237 550,270 565,537 580,362 596,406 611,410 627,242 642,171 658,256 673,103 689,127 704,215 720,314 735,170 751,265 766,464 781,255 797,300 812,266 828,226 843,235 859,130 874,205 890,344 905,365 921,358 936,312" fill="none" stroke="#241f1a" stroke-opacity="0.05" stroke-width="1"/>
<polyline points="24,271 39,270 55,362 70,304 86,116 101,222 117,201 132,328 148,288 163,88 179,173 194,265 209,247 225,305 240,282 256,252 271,183 287,404 302,182 318,123 333,100 349,219 364,286 380,371 395,404 410,325 426,333 441,225 457,330 472,236 488,322 503,344 519,318 534,231 550,385 565,303 580,278 596,195 611,354 627,245 642,314 658,405 673,353 689,249 704,218 720,244 735,289 751,430 766,371 781,461 797,371 812,89 828,20 843,219 859,164 874,344 890,161 905,219 921,218 936,101" fill="none" stroke="#241f1a" stroke-opacity="0.05" stroke-width="1"/>
<polyline points="24,271 39,433 55,172 70,204 86,202 101,157 117,356 132,302 148,268 163,441 179,396 194,351 209,330 225,175 240,125 256,275 271,279 287,265 302,188 318,337 333,357 349,377 364,303 380,281 395,236 410,309 426,428 441,199 457,55 472,228 488,274 503,409 519,159 534,323 550,375 565,304 580,195 596,342 611,304 627,399 642,369 658,407 673,327 689,28 704,253 720,228 735,248 751,216 766,248 781,234 797,347 812,389 828,258 843,496 859,406 874,352 890,226 905,386 921,320 936,406" fill="none" stroke="#241f1a" stroke-opacity="0.05" stroke-width="1"/>
<polyline points="24,271 39,254 55,313 70,216 86,170 101,345 117,298 132,384 148,355 163,208 179,251 194,329 209,167 225,140 240,161 256,291 271,414 287,251 302,356 318,276 333,164 349,155 364,319 380,365 395,121 410,136 426,-0 441,302 457,258 472,526 488,280 503,401 519,264 534,211 550,209 565,247 580,254 596,63 611,11 627,198 642,151 658,166 673,199 689,82 704,198 720,523 735,393 751,452 766,353 781,515 797,311 812,302 828,384 843,141 859,126 874,-22 890,-85 905,68 921,302 936,290" fill="none" stroke="#241f1a" stroke-opacity="0.05" stroke-width="1"/>
<polyline points="24,271 39,329 55,366 70,251 86,285 101,91 117,-130 132,135 148,251 163,172 179,235 194,367 209,179 225,322 240,277 256,94 271,162 287,149 302,180 318,193 333,222 349,377 364,254 380,193 395,342 410,163 426,317 441,393 457,254 472,287 488,295 503,70 519,374 534,352 550,110 565,183 580,274 596,258 611,202 627,288 642,55 658,188 673,377 689,352 704,282 720,143 735,158 751,-38 766,74 781,76 797,193 812,112 828,250 843,186 859,120 874,209 890,335 905,373 921,320 936,358" fill="none" stroke="#241f1a" stroke-opacity="0.05" stroke-width="1"/>
<polyline points="24,271 39,203 55,318 70,320 86,428 101,295 117,257 132,388 148,375 163,219 179,213 194,305 209,338 225,418 240,261 256,0 271,-105 287,251 302,229 318,419 333,492 349,331 364,247 380,244 395,127 410,16 426,220 441,109 457,193 472,292 488,373 503,266 519,414 534,229 550,277 565,204 580,207 596,258 611,107 627,127 642,31 658,12 673,91 689,139 704,249 720,220 735,274 751,281 766,190 781,431 797,433 812,252 828,243 843,95 859,249 874,233 890,139 905,142 921,383 936,262" fill="none" stroke="#241f1a" stroke-opacity="0.05" stroke-width="1"/>
<polyline points="24,271 39,230 55,418 70,423 86,271 101,212 117,276 132,468 148,261 163,159 179,300 194,269 209,181 225,172 240,294 256,270 271,303 287,489 302,430 318,351 333,191 349,379 364,313 380,384 395,343 410,293 426,388 441,204 457,385 472,141 488,458 503,406 519,310 534,295 550,438 565,380 580,566 596,124 611,378 627,272 642,225 658,502 673,255 689,256 704,297 720,231 735,241 751,262 766,209 781,36 797,8 812,158 828,424 843,234 859,256 874,330 890,282 905,216 921,286 936,400" fill="none" stroke="#241f1a" stroke-opacity="0.05" stroke-width="1"/>
<polyline points="24,271 39,173 55,306 70,255 86,348 101,140 117,252 132,228 148,161 163,266 179,210 194,44 209,67 225,11 240,100 256,137 271,57 287,185 302,251 318,345 333,254 349,295 364,476 380,308 395,89 410,388 426,410 441,210 457,97 472,62 488,234 503,394 519,210 534,183 550,279 565,201 580,-33 596,290 611,359 627,406 642,429 658,382 673,315 689,76 704,215 720,364 735,338 751,330 766,355 781,323 797,371 812,366 828,222 843,268 859,159 874,261 890,150 905,108 921,184 936,130" fill="none" stroke="#241f1a" stroke-opacity="0.05" stroke-width="1"/>
<polyline points="24,271 39,186 55,240 70,270 86,414 101,280 117,324 132,312 148,331 163,245 179,292 194,309 209,70 225,274 240,486 256,269 271,331 287,393 302,320 318,383 333,291 349,272 364,460 380,438 395,313 410,330 426,274 441,229 457,253 472,235 488,318 503,111 519,117 534,348 550,488 565,294 580,170 596,65 611,160 627,117 642,361 658,296 673,615 689,392 704,604 720,347 735,245 751,381 766,265 781,402 797,270 812,364 828,185 843,431 859,482 874,446 890,356 905,209 921,299 936,209" fill="none" stroke="#241f1a" stroke-opacity="0.05" stroke-width="1"/>
<polyline points="24,271 39,135 55,249 70,374 86,352 101,386 117,426 132,409 148,471 163,367 179,264 194,335 209,311 225,321 240,202 256,294 271,18 287,290 302,214 318,124 333,160 349,320 364,232 380,208 395,240 410,121 426,349 441,227 457,113 472,32 488,212 503,370 519,289 534,419 550,297 565,190 580,400 596,427 611,606 627,378 642,217 658,144 673,202 689,149 704,199 720,372 735,407 751,342 766,443 781,337 797,188 812,-11 828,90 843,110 859,167 874,238 890,397 905,286 921,80 936,492" fill="none" stroke="#241f1a" stroke-opacity="0.05" stroke-width="1"/>
<polyline points="24,271 39,197 55,187 70,400 86,361 101,298 117,346 132,213 148,320 163,431 179,344 194,469 209,378 225,219 240,19 256,388 271,573 287,541 302,489 318,390 333,105 349,342 364,104 380,176 395,269 410,102 426,-6 441,143 457,245 472,288 488,146 503,250 519,196 534,293 550,143 565,273 580,321 596,212 611,350 627,218 642,381 658,173 673,287 689,296 704,155 720,420 735,423 751,356 766,340 781,364 797,25 812,-76 828,93 843,229 859,117 874,397 890,470 905,235 921,171 936,188" fill="none" stroke="#241f1a" stroke-opacity="0.05" stroke-width="1"/>
<polyline points="24,271 39,226 55,246 70,226 86,170 101,172 117,320 132,280 148,324 163,338 179,222 194,370 209,420 225,383 240,413 256,373 271,74 287,232 302,178 318,110 333,140 349,140 364,138 380,374 395,423 410,387 426,203 441,444 457,449 472,133 488,276 503,261 519,118 534,183 550,245 565,394 580,338 596,338 611,235 627,62 642,19 658,285 673,334 689,320 704,141 720,267 735,182 751,87 766,224 781,228 797,177 812,584 828,386 843,319 859,287 874,466 890,511 905,383 921,242 936,470" fill="none" stroke="#241f1a" stroke-opacity="0.05" stroke-width="1"/>
<polyline points="24,271 39,303 55,208 70,288 86,237 101,238 117,225 132,224 148,374 163,381 179,201 194,224 209,459 225,156 240,235 256,351 271,361 287,240 302,236 318,200 333,305 349,295 364,288 380,255 395,239 410,144 426,284 441,375 457,297 472,443 488,256 503,177 519,261 534,95 550,274 565,392 580,339 596,182 611,386 627,85 642,180 658,180 673,304 689,165 704,318 720,219 735,413 751,210 766,400 781,309 797,244 812,269 828,343 843,244 859,316 874,285 890,281 905,268 921,127 936,294" fill="none" stroke="#241f1a" stroke-opacity="0.05" stroke-width="1"/>
<polyline points="24,271 39,159 55,301 70,358 86,194 101,524 117,405 132,297 148,285 163,588 179,427 194,430 209,384 225,289 240,478 256,513 271,272 287,263 302,342 318,481 333,310 349,270 364,142 380,366 395,233 410,267 426,340 441,249 457,347 472,508 488,339 503,310 519,172 534,255 550,289 565,181 580,569 596,417 611,282 627,285 642,394 658,234 673,439 689,315 704,191 720,215 735,309 751,189 766,363 781,262 797,251 812,570 828,346 843,294 859,242 874,383 890,290 905,371 921,153 936,58" fill="none" stroke="#241f1a" stroke-opacity="0.05" stroke-width="1"/>
<polyline points="24,271 39,269 55,143 70,382 86,286 101,287 117,311 132,303 148,161 163,343 179,349 194,186 209,403 225,246 240,125 256,223 271,232 287,94 302,232 318,116 333,311 349,470 364,487 380,239 395,274 410,390 426,418 441,281 457,216 472,434 488,176 503,341 519,472 534,171 550,97 565,264 580,238 596,207 611,201 627,262 642,356 658,421 673,320 689,376 704,349 720,342 735,165 751,172 766,156 781,89 797,193 812,207 828,138 843,82 859,367 874,232 890,191 905,208 921,263 936,147" fill="none" stroke="#241f1a" stroke-opacity="0.05" stroke-width="1"/>
<polyline points="24,271 39,81 55,223 70,466 86,351 101,392 117,284 132,277 148,414 163,176 179,21 194,225 209,179 225,102 240,351 256,258 271,327 287,329 302,293 318,340 333,82 349,301 364,392 380,334 395,320 410,144 426,365 441,369 457,368 472,300 488,411 503,321 519,253 534,390 550,239 565,215 580,345 596,136 611,325 627,394 642,461 658,385 673,240 689,50 704,154 720,94 735,227 751,292 766,303 781,290 797,402 812,355 828,345 843,96 859,131 874,132 890,374 905,198 921,357 936,8" fill="none" stroke="#241f1a" stroke-opacity="0.05" stroke-width="1"/>
<polyline points="24,271 39,229 55,209 70,29 86,337 101,163 117,236 132,286 148,366 163,300 179,173 194,161 209,177 225,433 240,305 256,305 271,448 287,189 302,290 318,303 333,320 349,224 364,406 380,129 395,201 410,182 426,122 441,120 457,285 472,217 488,229 503,425 519,407 534,401 550,434 565,355 580,414 596,200 611,133 627,271 642,94 658,142 673,135 689,128 704,301 720,189 735,184 751,260 766,288 781,469 797,153 812,259 828,195 843,300 859,390 874,142 890,243 905,233 921,168 936,118" fill="none" stroke="#241f1a" stroke-opacity="0.05" stroke-width="1"/>
<polyline points="24,271 39,154 55,191 70,426 86,147 101,29 117,221 132,269 148,382 163,475 179,309 194,378 209,296 225,300 240,330 256,244 271,445 287,247 302,257 318,196 333,203 349,-15 364,350 380,175 395,264 410,230 426,67 441,383 457,219 472,272 488,305 503,73 519,248 534,109 550,-83 565,505 580,569 596,582 611,389 627,413 642,384 658,35 673,118 689,191 704,202 720,102 735,347 751,479 766,532 781,302 797,125 812,257 828,340 843,405 859,391 874,156 890,203 905,329 921,317 936,297" fill="none" stroke="#241f1a" stroke-opacity="0.05" stroke-width="1"/>
<polyline points="24,271 39,228 55,263 70,191 86,201 101,344 117,206 132,270 148,98 163,57 179,186 194,219 209,187 225,167 240,366 256,190 271,127 287,340 302,294 318,287 333,267 349,158 364,82 380,287 395,181 410,230 426,259 441,65 457,383 472,269 488,65 503,291 519,308 534,122 550,225 565,201 580,366 596,298 611,137 627,377 642,463 658,364 673,317 689,468 704,195 720,374 735,184 751,37 766,179 781,420 797,534 812,448 828,239 843,154 859,168 874,290 890,424 905,451 921,263 936,248" fill="none" stroke="#241f1a" stroke-opacity="0.05" stroke-width="1"/>
<polyline points="24,271 39,135 55,91 70,97 86,70 101,283 117,296 132,244 148,279 163,324 179,381 194,376 209,346 225,116 240,307 256,321 271,526 287,248 302,254 318,404 333,316 349,399 364,212 380,286 395,384 410,507 426,236 441,149 457,385 472,372 488,236 503,266 519,385 534,378 550,398 565,430 580,293 596,188 611,60 627,251 642,399 658,128 673,89 689,-14 704,323 720,348 735,316 751,156 766,86 781,58 797,163 812,264 828,180 843,235 859,266 874,160 890,264 905,120 921,101 936,256" fill="none" stroke="#241f1a" stroke-opacity="0.05" stroke-width="1"/>
<polyline points="24,271 39,124 55,59 70,44 86,135 101,288 117,397 132,436 148,277 163,29 179,375 194,172 209,432 225,353 240,328 256,544 271,335 287,300 302,418 318,355 333,358 349,357 364,287 380,270 395,358 410,193 426,172 441,196 457,319 472,227 488,342 503,381 519,437 534,455 550,294 565,158 580,253 596,174 611,201 627,297 642,87 658,129 673,335 689,259 704,300 720,401 735,296 751,195 766,415 781,338 797,405 812,317 828,288 843,544 859,368 874,254 890,190 905,43 921,167 936,301" fill="none" stroke="#241f1a" stroke-opacity="0.05" stroke-width="1"/>
<polyline points="24,271 39,63 55,126 70,153 86,136 101,132 117,324 132,399 148,239 163,202 179,345 194,232 209,260 225,275 240,350 256,385 271,260 287,202 302,306 318,214 333,293 349,493 364,403 380,350 395,97 410,-187 426,175 441,191 457,246 472,272 488,210 503,185 519,163 534,138 550,179 565,5 580,120 596,235 611,251 627,207 642,314 658,170 673,268 689,283 704,387 720,357 735,238 751,292 766,189 781,270 797,257 812,408 828,233 843,261 859,285 874,19 890,-38 905,259 921,113 936,42" fill="none" stroke="#241f1a" stroke-opacity="0.05" stroke-width="1"/>
<polyline points="24,271 39,352 55,257 70,513 86,225 101,273 117,347 132,325 148,-7 163,114 179,179 194,217 209,204 225,104 240,69 256,173 271,130 287,407 302,155 318,424 333,270 349,359 364,381 380,290 395,175 410,43 426,-7 441,303 457,376 472,382 488,288 503,92 519,172 534,106 550,9 565,332 580,239 596,444 611,11 627,195 642,293 658,271 673,185 689,205 704,422 720,296 735,184 751,403 766,315 781,84 797,196 812,190 828,118 843,39 859,354 874,179 890,295 905,216 921,260 936,332" fill="none" stroke="#241f1a" stroke-opacity="0.05" stroke-width="1"/>
<polyline points="24,271 39,182 55,81 70,114 86,311 101,324 117,240 132,274 148,397 163,208 179,213 194,121 209,114 225,281 240,70 256,89 271,80 287,121 302,242 318,85 333,187 349,457 364,397 380,384 395,408 410,466 426,517 441,271 457,291 472,469 488,286 503,56 519,234 534,404 550,248 565,479 580,422 596,237 611,186 627,228 642,297 658,56 673,140 689,399 704,405 720,380 735,424 751,457 766,367 781,234 797,143 812,-31 828,233 843,210 859,178 874,19 890,158 905,282 921,218 936,199" fill="none" stroke="#241f1a" stroke-opacity="0.05" stroke-width="1"/>
<polyline points="24,271 39,269 55,265 70,452 86,528 101,423 117,185 132,143 148,372 163,-28 179,131 194,286 209,121 225,263 240,233 256,279 271,200 287,209 302,272 318,193 333,69 349,243 364,84 380,318 395,533 410,452 426,383 441,278 457,351 472,356 488,178 503,92 519,89 534,174 550,209 565,252 580,241 596,198 611,100 627,351 642,411 658,467 673,177 689,228 704,183 720,179 735,251 751,283 766,418 781,257 797,2 812,328 828,213 843,291 859,222 874,194 890,292 905,148 921,406 936,327" fill="none" stroke="#241f1a" stroke-opacity="0.05" stroke-width="1"/>
<polyline points="24,271 39,219 55,279 70,150 86,286 101,258 117,479 132,148 148,186 163,303 179,139 194,233 209,281 225,303 240,383 256,241 271,383 287,470 302,523 318,453 333,128 349,101 364,253 380,339 395,168 410,467 426,315 441,510 457,478 472,128 488,618 503,432 519,541 534,369 550,222 565,128 580,232 596,316 611,525 627,364 642,396 658,360 673,305 689,124 704,219 720,447 735,372 751,162 766,299 781,367 797,303 812,281 828,283 843,468 859,419 874,239 890,391 905,418 921,433 936,364" fill="none" stroke="#241f1a" stroke-opacity="0.05" stroke-width="1"/>
<polyline points="24,271 39,326 55,251 70,25 86,12 101,236 117,255 132,76 148,150 163,251 179,381 194,193 209,372 225,269 240,304 256,219 271,165 287,369 302,303 318,335 333,308 349,284 364,482 380,415 395,483 410,289 426,530 441,330 457,163 472,46 488,-59 503,255 519,293 534,303 550,348 565,336 580,-36 596,68 611,380 627,371 642,135 658,306 673,291 689,451 704,390 720,547 735,354 751,319 766,328 781,210 797,279 812,243 828,242 843,231 859,268 874,130 890,23 905,330 921,292 936,328" fill="none" stroke="#241f1a" stroke-opacity="0.05" stroke-width="1"/>
<polyline points="24,271 39,375 55,88 70,235 86,469 101,264 117,187 132,224 148,79 163,347 179,434 194,288 209,336 225,284 240,17 256,82 271,329 287,447 302,397 318,398 333,186 349,122 364,278 380,81 395,263 410,136 426,319 441,418 457,314 472,482 488,272 503,208 519,386 534,206 550,183 565,318 580,228 596,237 611,352 627,6 642,54 658,100 673,389 689,461 704,283 720,245 735,61 751,241 766,310 781,121 797,473 812,441 828,176 843,-34 859,339 874,440 890,326 905,311 921,452 936,463" fill="none" stroke="#241f1a" stroke-opacity="0.05" stroke-width="1"/>
<polyline points="24,271 39,293 55,422 70,211 86,291 101,396 117,562 132,364 148,307 163,82 179,295 194,312 209,227 225,427 240,196 256,230 271,276 287,269 302,120 318,184 333,503 349,248 364,399 380,262 395,188 410,229 426,156 441,225 457,174 472,411 488,152 503,194 519,181 534,150 550,297 565,277 580,340 596,267 611,205 627,186 642,139 658,248 673,371 689,425 704,191 720,368 735,225 751,170 766,164 781,250 797,194 812,96 828,258 843,93 859,144 874,44 890,288 905,188 921,299 936,230" fill="none" stroke="#241f1a" stroke-opacity="0.05" stroke-width="1"/>
<polyline points="24,271 39,143 55,137 70,313 86,440 101,328 117,96 132,256 148,88 163,55 179,304 194,178 209,211 225,507 240,306 256,129 271,273 287,132 302,231 318,190 333,266 349,205 364,368 380,397 395,504 410,494 426,268 441,200 457,289 472,310 488,215 503,391 519,326 534,301 550,475 565,312 580,235 596,346 611,411 627,410 642,266 658,253 673,437 689,330 704,357 720,71 735,101 751,255 766,228 781,425 797,258 812,212 828,22 843,113 859,178 874,503 890,419 905,407 921,204 936,231" fill="none" stroke="#241f1a" stroke-opacity="0.05" stroke-width="1"/>
<polyline points="24,271 39,183 55,222 70,336 86,282 101,287 117,191 132,334 148,219 163,370 179,227 194,369 209,349 225,265 240,260 256,442 271,596 287,349 302,256 318,98 333,185 349,349 364,227 380,217 395,277 410,413 426,244 441,206 457,82 472,357 488,470 503,335 519,319 534,409 550,360 565,232 580,222 596,363 611,422 627,291 642,22 658,192 673,220 689,402 704,284 720,346 735,228 751,372 766,20 781,12 797,101 812,153 828,204 843,313 859,259 874,187 890,325 905,190 921,342 936,398" fill="none" stroke="#241f1a" stroke-opacity="0.05" stroke-width="1"/>
<polyline points="24,271 39,210 55,169 70,425 86,146 101,275 117,332 132,237 148,156 163,144 179,430 194,250 209,347 225,317 240,260 256,144 271,188 287,279 302,287 318,304 333,316 349,182 364,189 380,438 395,497 410,308 426,243 441,177 457,244 472,343 488,219 503,224 519,277 534,318 550,84 565,26 580,103 596,61 611,187 627,104 642,295 658,131 673,250 689,250 704,466 720,290 735,388 751,208 766,235 781,454 797,503 812,139 828,339 843,334 859,272 874,165 890,172 905,355 921,281 936,294" fill="none" stroke="#241f1a" stroke-opacity="0.05" stroke-width="1"/>
<polyline points="24,271 39,314 55,436 70,337 86,36 101,162 117,341 132,352 148,324 163,348 179,85 194,159 209,212 225,171 240,238 256,121 271,349 287,433 302,290 318,227 333,337 349,439 364,289 380,229 395,277 410,231 426,239 441,250 457,430 472,419 488,520 503,197 519,369 534,246 550,419 565,307 580,274 596,281 611,88 627,25 642,147 658,143 673,110 689,105 704,279 720,287 735,142 751,307 766,258 781,308 797,270 812,255 828,354 843,339 859,269 874,293 890,463 905,332 921,343 936,188" fill="none" stroke="#241f1a" stroke-opacity="0.05" stroke-width="1"/>
<polyline points="24,271 39,286 55,149 70,70 86,143 101,346 117,212 132,182 148,247 163,69 179,218 194,220 209,73 225,234 240,140 256,271 271,274 287,205 302,306 318,247 333,349 349,338 364,359 380,361 395,324 410,393 426,335 441,356 457,363 472,351 488,422 503,423 519,295 534,298 550,333 565,314 580,412 596,328 611,286 627,409 642,677 658,295 673,326 689,220 704,162 720,340 735,531 751,236 766,146 781,209 797,222 812,261 828,416 843,298 859,294 874,226 890,146 905,225 921,214 936,343" fill="none" stroke="#241f1a" stroke-opacity="0.05" stroke-width="1"/>
<polyline points="24,271 39,317 55,320 70,223 86,188 101,415 117,362 132,237 148,97 163,169 179,288 194,263 209,319 225,499 240,507 256,421 271,393 287,591 302,428 318,263 333,291 349,240 364,341 380,196 395,325 410,228 426,206 441,138 457,38 472,16 488,365 503,236 519,252 534,289 550,385 565,340 580,499 596,270 611,221 627,345 642,293 658,157 673,194 689,200 704,159 720,273 735,281 751,348 766,387 781,192 797,357 812,352 828,385 843,312 859,355 874,464 890,543 905,568 921,255 936,58" fill="none" stroke="#241f1a" stroke-opacity="0.05" stroke-width="1"/>
<polyline points="24,271 39,252 55,363 70,125 86,317 101,330 117,227 132,434 148,343 163,213 179,259 194,326 209,291 225,431 240,310 256,334 271,307 287,190 302,152 318,284 333,207 349,59 364,87 380,331 395,287 410,124 426,232 441,297 457,301 472,328 488,186 503,299 519,333 534,319 550,280 565,152 580,342 596,254 611,131 627,319 642,363 658,361 673,348 689,232 704,284 720,329 735,369 751,308 766,364 781,257 797,380 812,106 828,123 843,182 859,330 874,381 890,464 905,332 921,319 936,516" fill="none" stroke="#241f1a" stroke-opacity="0.05" stroke-width="1"/>
<polyline points="24,271 39,190 55,206 70,350 86,186 101,222 117,341 132,395 148,279 163,369 179,312 194,342 209,330 225,70 240,330 256,270 271,154 287,140 302,330 318,346 333,241 349,276 364,265 380,187 395,143 410,230 426,392 441,549 457,414 472,366 488,313 503,175 519,143 534,167 550,-7 565,42 580,247 596,186 611,126 627,163 642,94 658,27 673,422 689,331 704,234 720,342 735,218 751,157 766,84 781,239 797,317 812,301 828,263 843,260 859,366 874,275 890,349 905,271 921,334 936,338" fill="none" stroke="#241f1a" stroke-opacity="0.05" stroke-width="1"/>
<polyline points="24,271 39,288 55,342 70,258 86,355 101,389 117,146 132,167 148,319 163,222 179,239 194,397 209,345 225,398 240,187 256,307 271,331 287,190 302,353 318,233 333,58 349,108 364,198 380,439 395,314 410,252 426,222 441,145 457,372 472,248 488,205 503,315 519,298 534,379 550,198 565,325 580,224 596,241 611,274 627,9 642,145 658,476 673,411 689,441 704,223 720,211 735,183 751,319 766,289 781,430 797,358 812,506 828,380 843,456 859,486 874,334 890,289 905,68 921,146 936,334" fill="none" stroke="#241f1a" stroke-opacity="0.05" stroke-width="1"/>
<polyline points="24,271 39,149 55,244 70,294 86,165 101,159 117,270 132,308 148,276 163,193 179,161 194,208 209,238 225,212 240,61 256,341 271,255 287,310 302,274 318,403 333,296 349,299 364,464 380,313 395,494 410,348 426,254 441,372 457,134 472,261 488,13 503,197 519,361 534,166 550,90 565,210 580,311 596,181 611,270 627,428 642,399 658,287 673,149 689,144 704,156 720,19 735,324 751,245 766,207 781,282 797,478 812,195 828,339 843,353 859,320 874,178 890,249 905,357 921,218 936,242" fill="none" stroke="#241f1a" stroke-opacity="0.05" stroke-width="1"/>
<polyline points="24,271 39,127 55,213 70,214 86,350 101,364 117,363 132,442 148,318 163,458 179,308 194,266 209,49 225,391 240,269 256,176 271,132 287,364 302,206 318,333 333,189 349,-59 364,92 380,379 395,281 410,361 426,162 441,68 457,263 472,125 488,230 503,347 519,67 534,328 550,219 565,246 580,264 596,373 611,434 627,506 642,210 658,229 673,386 689,343 704,402 720,302 735,159 751,131 766,210 781,155 797,258 812,344 828,-7 843,-59 859,236 874,406 890,126 905,161 921,256 936,265" fill="none" stroke="#241f1a" stroke-opacity="0.05" stroke-width="1"/>
<polyline points="24,271 39,321 55,349 70,173 86,216 101,321 117,304 132,396 148,142 163,329 179,51 194,159 209,479 225,461 240,368 256,308 271,126 287,191 302,143 318,237 333,271 349,217 364,277 380,242 395,-13 410,189 426,294 441,232 457,469 472,372 488,260 503,226 519,295 534,209 550,303 565,361 580,488 596,197 611,224 627,323 642,365 658,209 673,190 689,55 704,453 720,365 735,342 751,353 766,370 781,168 797,319 812,338 828,292 843,421 859,315 874,248 890,485 905,218 921,392 936,393" fill="none" stroke="#241f1a" stroke-opacity="0.05" stroke-width="1"/>
<polyline points="24,271 39,295 55,110 70,413 86,311 101,308 117,370 132,332 148,456 163,327 179,326 194,351 209,263 225,255 240,224 256,324 271,284 287,296 302,381 318,427 333,164 349,187 364,136 380,155 395,244 410,463 426,303 441,272 457,410 472,376 488,321 503,351 519,407 534,442 550,256 565,278 580,102 596,234 611,315 627,146 642,252 658,389 673,168 689,189 704,241 720,197 735,97 751,436 766,190 781,352 797,432 812,331 828,359 843,398 859,325 874,178 890,252 905,268 921,283 936,143" fill="none" stroke="#241f1a" stroke-opacity="0.05" stroke-width="1"/>
<polyline points="24,271 39,245 55,141 70,108 86,191 101,285 117,272 132,325 148,292 163,136 179,228 194,274 209,343 225,184 240,186 256,342 271,168 287,334 302,190 318,331 333,290 349,218 364,345 380,403 395,159 410,384 426,244 441,121 457,211 472,223 488,348 503,331 519,277 534,399 550,172 565,251 580,127 596,457 611,401 627,297 642,193 658,307 673,328 689,187 704,289 720,187 735,380 751,334 766,299 781,153 797,231 812,330 828,219 843,334 859,202 874,140 890,238 905,246 921,223 936,111" fill="none" stroke="#241f1a" stroke-opacity="0.05" stroke-width="1"/>
<polyline points="24,271 39,401 55,489 70,240 86,329 101,303 117,544 132,403 148,256 163,229 179,287 194,173 209,248 225,142 240,211 256,297 271,290 287,366 302,338 318,300 333,373 349,299 364,277 380,320 395,435 410,339 426,612 441,419 457,300 472,304 488,328 503,185 519,266 534,266 550,181 565,226 580,275 596,162 611,316 627,397 642,426 658,217 673,329 689,245 704,255 720,402 735,302 751,281 766,375 781,142 797,304 812,331 828,232 843,194 859,232 874,80 890,98 905,364 921,232 936,309" fill="none" stroke="#241f1a" stroke-opacity="0.05" stroke-width="1"/>
<polyline points="24,271 39,405 55,568 70,440 86,291 101,157 117,272 132,337 148,244 163,454 179,209 194,391 209,258 225,171 240,239 256,113 271,143 287,28 302,158 318,179 333,242 349,343 364,284 380,208 395,263 410,214 426,280 441,140 457,147 472,348 488,451 503,239 519,358 534,295 550,226 565,47 580,145 596,261 611,256 627,391 642,367 658,329 673,224 689,150 704,228 720,277 735,301 751,383 766,254 781,310 797,408 812,344 828,461 843,397 859,163 874,262 890,220 905,363 921,453 936,171" fill="none" stroke="#241f1a" stroke-opacity="0.05" stroke-width="1"/>
<polyline points="24,271 39,267 55,271 70,270 86,274 101,277 117,280 132,275 148,269 163,272 179,273 194,274 209,271 225,272 240,272 256,270 271,269 287,271 302,273 318,266 333,272 349,273 364,269 380,270 395,268 410,272 426,273 441,270 457,272 472,273 488,274 503,273 519,272 534,270 550,270 565,276 580,276 596,276 611,274 627,269 642,270 658,274 673,270 689,276 704,276 720,271 735,272 751,273 766,269 781,269 797,275 812,278 828,274 843,266 859,267 874,271 890,273 905,271 921,274 936,276" fill="none" stroke="#b3311f" stroke-width="2.5" stroke-linejoin="round"/>
</g>
<text x="24" y="28" font-family="Georgia, serif" font-size="15" fill="#6b6153">Price · 2,000 paths · 60 trading days</text>
</svg>
